<svg width="66" height="49" viewBox="0 0 66 49" fill="none" xmlns="http://www.w3.org/2000/svg">
<path d="M2.424 3.568L0.12 5.2V2.2H13.464V5.2L11.16 3.568C10.32 3.064 9.144 2.728 8.184 2.728H8.064V19H5.52V2.728H5.4C4.44 2.728 3.264 3.064 2.424 3.568ZM21.3458 8.08C20.0978 8.08 18.3698 9.328 17.6018 11.176V19H15.1058V2.176H17.6018V10.264C18.6098 8.416 20.2418 6.856 22.1138 6.856C24.6578 6.856 25.9058 8.752 25.9058 11.776V19H23.4338V11.032C23.4338 9.112 22.7378 8.08 21.3458 8.08ZM39.8115 14.872L40.2435 15.016C39.1635 17.608 37.6755 19.24 34.7475 19.24C31.2195 19.24 28.0995 17.008 28.0995 13.024C28.0995 9.04 31.2195 6.808 34.7475 6.808C37.9635 6.808 40.2195 9.424 40.2195 12.16V13.048H30.4275C30.8595 15.544 32.5875 17.92 35.7555 17.92C37.1715 17.92 39.2355 16.672 39.8115 14.872ZM30.3555 12.52H37.6995C37.9155 9.712 36.0435 7.432 33.4755 7.432C31.1955 7.432 30.0915 9.952 30.3555 12.52ZM10.608 33.672L10.368 33.648C10.68 29.904 8.688 28.512 6.72 28.512C4.872 28.512 3.048 29.712 3.048 31.392C3.048 36 13.944 35.976 13.944 40.944C13.944 43.56 11.664 45.24 7.944 45.24C4.896 45.24 2.184 44.256 0.96 41.832C0.24 40.56 1.248 39.288 3.048 39.288H3.36C3.792 43.272 6.336 44.736 8.568 44.736C10.392 44.736 12.024 43.728 12.024 42.312C12.024 37.632 1.32 38.16 1.32 32.568C1.32 30.024 3.168 27.96 7.368 27.96C10.392 27.96 12.576 29.04 13.152 31.416C13.608 32.808 12.384 33.912 10.608 33.672ZM22.4708 34.08C21.2228 34.08 19.4948 35.328 18.7268 37.176V45H16.2308V28.176H18.7268V36.264C19.7348 34.416 21.3668 32.856 23.2388 32.856C25.7828 32.856 27.0308 34.752 27.0308 37.776V45H24.5588V37.032C24.5588 35.112 23.8628 34.08 22.4708 34.08ZM53.8824 27.48V45H51.4104V27.48H53.8824ZM61.5737 27.96C63.3737 27.96 64.4057 29.088 64.4057 30.192C64.4057 31.2 63.5657 31.704 62.1017 31.632C62.9657 29.64 62.0537 28.44 61.2137 28.44C60.6617 28.44 60.1337 28.944 60.1337 30.072V33H64.2137V33.528H60.1337V45H57.7097V33.528H55.5497V33H57.7097V32.352C57.7097 28.752 59.5817 27.96 61.5737 27.96Z" fill="#1E1E1E"/>
<rect x="29" y="32" width="20" height="3" fill="#F3D100"/>
<rect x="29" y="37" width="20" height="3" fill="#91CDE5"/>
<rect x="29" y="42" width="20" height="3" fill="#D33C23"/>
</svg>
